<svg xmlns="http://www.w3.org/2000/svg" width="40" height="31" fill="none"><g><path d="M 0 31 L 0 0 L 40 0 L 40 31 Z" fill="transparent"></path><path d="M 0.134 6.781 C 0.134 4.936 0.859 3.368 2.309 2.076 C 3.759 0.692 5.468 0 7.437 0 C 8.265 0 9.146 0.184 10.078 0.554 L 9.923 0.415 L 10.855 0.83 L 11.011 0.83 C 11.321 1.015 11.684 1.245 12.098 1.522 C 12.098 1.615 12.254 1.799 12.565 2.076 C 15.154 4.382 16.242 7.842 15.828 12.455 C 15.414 19.099 11.477 25.095 4.018 30.446 C 3.603 30.816 3.137 31 2.62 31 C 1.79 31 1.117 30.677 0.599 30.031 C -0.333 28.924 -0.178 27.91 1.065 26.986 C 7.178 22.558 10.493 17.76 11.011 12.594 C 9.871 13.24 8.68 13.563 7.437 13.563 C 5.468 13.563 3.759 12.917 2.309 11.625 C 0.859 10.241 0.134 8.627 0.134 6.781 Z M 24.219 6.781 C 24.219 4.936 24.945 3.368 26.395 2.076 C 27.845 0.692 29.554 0 31.523 0 C 32.352 0 33.232 0.184 34.165 0.554 L 34.009 0.415 C 34.32 0.507 34.631 0.646 34.941 0.83 L 35.097 0.83 C 35.511 1.015 35.874 1.245 36.184 1.522 C 36.184 1.615 36.341 1.799 36.651 2.076 C 39.241 4.382 40.328 7.842 39.915 12.455 C 39.5 19.099 35.563 25.095 28.104 30.446 C 27.69 30.816 27.223 31 26.706 31 C 25.877 31 25.255 30.677 24.841 30.031 C 23.805 28.924 23.909 27.91 25.152 26.986 C 31.264 22.558 34.579 17.76 35.097 12.594 C 33.958 13.24 32.766 13.563 31.523 13.563 C 29.554 13.563 27.845 12.917 26.395 11.625 C 24.945 10.241 24.219 8.627 24.219 6.781 Z" fill="rgb(230, 230, 230)"></path></g></svg>